/vscmnt/brussel_pixiu_data/_data_brussel/112/vsc11236/PredSimResults/SUBJ06opt3D/expIG/worker_03.mot
version=1
nRows=10
nColumns=50
inDegrees=yes
endheader
                time	         pelvis_tilt	         pelvis_list	     pelvis_rotation	           pelvis_tx	           pelvis_ty	           pelvis_tz	       hip_flexion_r	     hip_adduction_r	      hip_rotation_r	        knee_angle_r	       ankle_angle_r	         mtp_angle_r	       hip_flexion_l	     hip_adduction_l	      hip_rotation_l	        knee_angle_l	       ankle_angle_l	         mtp_angle_l	    lumbar_extension	      lumbar_bending	     lumbar_rotation	 ercspn_r/activation	 intobl_r/activation	 extobl_r/activation	    abd_r/activation	    add_r/activation	hamstrings_r/activation	bifemsh_r/activation	glut_max_r/activation	iliopsoas_r/activation	rect_fem_r/activation	  vasti_r/activation	gastroc_r/activation	 soleus_r/activation	tib_ant_r/activation	 ercspn_l/activation	 intobl_l/activation	 extobl_l/activation	    abd_l/activation	    add_l/activation	hamstrings_l/activation	bifemsh_l/activation	glut_max_l/activation	iliopsoas_l/activation	rect_fem_l/activation	  vasti_l/activation	gastroc_l/activation	 soleus_l/activation	tib_ant_l/activation	
          2.19727131	         -0.82497777	          4.69655667	         -8.25399644	          1.75781705	          0.95253056	          0.02070237	        -10.85346480	         -6.59072681	        -11.14001953	        -12.09589359	          9.25961449	         28.70946121	         20.66098589	          1.76919050	        -17.03183938	         -3.72618309	         -2.76387418	          0.19517301	         -6.59996628	         -2.73193189	          6.49516376	          0.07424473	          0.00999999	          0.00999999	          0.09877997	          0.00999999	          0.00999999	          0.16100880	          0.02185022	          0.12374707	          0.03708666	          0.00999999	          0.19464508	          0.32697066	          0.01699655	          0.19178871	          0.20845115	          0.00999999	          0.00999999	          0.21289981	          0.01480877	          0.00999999	          0.00999999	          0.09562613	          0.04701317	          0.12429852	          0.01244140	          0.00999999	          0.42682904	
          2.21191978	         -0.91427815	          4.53475219	         -8.21006698	          1.77279922	          0.95096070	          0.01918331	        -11.36803558	         -6.67333261	        -11.71216594	        -12.67738042	          8.53481119	         30.22775029	         20.12631484	          1.87313119	        -17.01029406	         -3.69664459	         -3.17714751	          0.21485551	         -6.21176592	         -2.94197540	          6.83871299	          0.07851117	          0.00999999	          0.00999999	          0.07939611	          0.00999999	          0.00999999	          0.12941360	          0.02395953	          0.09946385	          0.02980904	          0.00999999	          0.18406510	          0.31138466	          0.01366127	          0.18638521	          0.19340275	          0.00999999	          0.00999999	          0.17112189	          0.02382518	          0.00999999	          0.00999999	          0.07686115	          0.03778765	          0.14800129	          0.00999999	          0.00999999	          0.44413952	
          2.22656826	         -0.98935106	          4.37784373	         -8.12287988	          1.78828287	          0.94955005	          0.01765391	        -11.85312795	         -6.77623074	        -12.29316331	        -13.39142744	          7.67458634	         31.77424393	         19.42454829	          1.93485749	        -16.86381368	         -3.92788350	         -3.46025059	          0.18643669	         -5.78592454	         -3.19725635	          7.14797141	          0.09046213	          0.00999999	          0.00999999	          0.06381599	          0.00999999	          0.01000021	          0.10401842	          0.01925789	          0.07994578	          0.02395953	          0.00999999	          0.15979749	          0.29233641	          0.01098048	          0.14981033	          0.17990380	          0.00999999	          0.00999999	          0.13754217	          0.02949369	          0.00999999	          0.00999999	          0.06177848	          0.03037247	          0.13602608	          0.01244140	          0.01244140	          0.47584774	
          2.24121673	         -1.05372719	          4.24759475	         -7.98441481	          1.80403987	          0.94844209	          0.01599176	        -12.20341336	         -6.94491403	        -12.86606326	        -14.39065873	          6.66778501	         33.34726717	         18.62126943	          2.03576008	        -16.87088226	         -4.06300730	         -3.77628830	          0.17619681	         -5.34773839	         -3.50379214	          7.41460065	          0.11825808	          0.00999999	          0.00999999	          0.05129320	          0.00999999	          0.00999999	          0.08927254	          0.01547886	          0.08281423	          0.01925789	          0.00999999	          0.12843999	          0.26766812	          0.00999999	          0.12041264	          0.14460078	          0.00999999	          0.02929437	          0.11055189	          0.04762791	          0.00999999	          0.01795308	          0.04965552	          0.02441240	          0.13092114	          0.00999999	          0.00999999	          0.50802980	
          2.25586521	         -1.10991642	          4.15295369	         -7.79740013	          1.81979897	          0.94788525	          0.01414022	        -12.30437490	         -7.21286058	        -13.42073464	        -15.82882729	          5.45232081	         34.95325834	         17.82147068	          2.17237283	        -17.01199368	         -4.23547590	         -3.90073108	          0.15377417	         -4.92366423	         -3.85504207	          7.63703660	          0.15672552	          0.00999999	          0.00999999	          0.04122780	          0.02522334	          0.03849604	          0.07175435	          0.01244140	          0.06656338	          0.01547886	          0.00999999	          0.10323586	          0.24236515	          0.00999999	          0.11342406	          0.11622537	          0.00999999	          0.07195135	          0.08885799	          0.05239170	          0.00999999	          0.03072871	          0.03991148	          0.01962189	          0.11857831	          0.00999999	          0.00999999	          0.50506536	
          2.27051369	         -1.16023169	          4.08089506	         -7.57786963	          1.83534376	          0.94815806	          0.01211624	        -12.06668441	         -7.58585423	        -13.95016974	        -17.80616927	          3.92479350	         36.56913367	         17.05953699	          2.33410525	        -17.12881997	         -4.54142700	         -3.51181555	          0.21009241	         -4.52852091	         -4.22595999	          7.82445712	          0.17449897	          0.00999999	          0.00999999	          0.03313755	          0.11756497	          0.06051119	          0.08192699	          0.00999999	          0.07843226	          0.01244140	          0.00999999	          0.08297760	          0.19660558	          0.00999999	          0.10903506	          0.09341815	          0.00999999	          0.08784501	          0.07142114	          0.05858436	          0.00999999	          0.07527842	          0.03207954	          0.01577143	          0.12575872	          0.00999999	          0.00999999	          0.45795991	
          2.28516216	         -1.20817461	          3.98910604	         -7.33365163	          1.85051715	          0.94940034	          0.00997132	        -11.43193704	         -8.03180618	        -14.46752950	        -20.38517542	          2.04905243	         38.01894343	         16.27232898	          2.50009389	        -17.11538917	         -4.82208898	         -2.78073109	          0.39415829	         -4.17496335	         -4.56654668	          7.97908958	          0.17696303	          0.00999999	          0.00999999	          0.02663488	          0.15633797	          0.09610006	          0.08062994	          0.00999999	          0.06304128	          0.00999999	          0.00999999	          0.06669468	          0.15802513	          0.00999999	          0.10166759	          0.07508645	          0.00999999	          0.09580620	          0.05740598	          0.06871799	          0.00999999	          0.07543385	          0.02578448	          0.01267656	          0.10257342	          0.00999999	          0.00999999	          0.39982504	
          2.29981064	         -1.25515052	          3.82813765	         -7.06730569	          1.86521873	          0.95145782	          0.00775924	        -10.40015972	         -8.50385653	        -14.99594343	        -23.55035254	         -0.09123447	         38.96816251	         15.43915550	          2.61595033	        -17.00355758	         -4.98120006	         -2.04115746	          0.68577079	         -3.87695107	         -4.82300287	          8.09825322	          0.16738820	          0.00999999	          0.00999999	          0.02140824	          0.19459096	          0.12400672	          0.09898131	          0.00999999	          0.05462123	          0.00999999	          0.00999999	          0.05360700	          0.12701542	          0.00999999	          0.09642054	          0.06035203	          0.00999999	          0.09163073	          0.04614104	          0.07652563	          0.00999999	          0.07688307	          0.02072472	          0.01018900	          0.09257379	          0.00999999	          0.00999999	          0.35256168	
          2.31445911	         -1.30035718	          3.55290670	         -6.78272074	          1.87940708	          0.95404413	          0.00552307	         -9.00300968	         -8.96676353	        -15.58207909	        -27.27964376	         -2.22797788	         38.83779752	         14.54880591	          2.62926645	        -16.83275324	         -4.97478072	         -1.45576692	          1.03688851	         -3.64636132	         -4.94680131	          8.18113679	          0.15843727	          0.00999999	          0.00999999	          0.01720725	          0.22279203	          0.11109184	          0.08536607	          0.00999999	          0.05294380	          0.00999999	          0.00999999	          0.04308755	          0.10209084	          0.00999999	          0.07749967	          0.04850898	          0.00999999	          0.07508537	          0.03708666	          0.08419047	          0.00999999	          0.07773064	          0.01665785	          0.00999999	          0.09501827	          0.00999999	          0.00999999	          0.32220606	
          2.32910759	         -1.34183032	          3.13737973	         -6.47901879	          1.89308058	          0.95691239	          0.00327056	         -7.29385019	         -9.40258064	        -16.17347235	        -31.46002074	         -4.40911832	         37.61149836	         13.58962434	          2.51265591	        -16.60875926	         -4.78639491	         -1.02733326	          1.40827270	         -3.49200558	         -4.90694580	          8.22541951	          0.15190296	          0.00999999	          0.00999999	          0.01383062	          0.24272649	          0.09801336	          0.08968160	          0.00999999	          0.04255449	          0.00999999	          0.00999999	          0.03463236	          0.08205727	          0.00999999	          0.06229170	          0.03898993	          0.00999999	          0.06314849	          0.02980904	          0.08894546	          0.00999999	          0.07328350	          0.01338904	          0.00999999	          0.10044368	          0.00999999	          0.00999999	          0.30450982	
